<svg id="b1dda0c2-0f18-497a-8c1a-592a3f797973" data-name="Icons" xmlns="http://www.w3.org/2000/svg" viewBox="0 0 50 50"><path d="M45.972,21.607,25.222,11.3a.5.5,0,0,0-.444,0L4.028,21.607a.5.5,0,0,0,0,.9l2.687,1.334v4.045L5.247,33.711a.5.5,0,0,0-.015.122c0,.051.022,1.236,1.982,1.236S9.2,33.884,9.2,33.833a.5.5,0,0,0-.015-.122L7.714,27.883V24.335l4.929,2.448v7.05a.509.509,0,0,0,.026.159c.065.2,1.718,4.758,12.331,4.758s12.266-4.563,12.331-4.758a.509.509,0,0,0,.026-.159v-7.05L45.972,22.5a.5.5,0,0,0,0-.9ZM8.179,33.825c-.071.09-.325.244-.965.244a1.454,1.454,0,0,1-.97-.222l.97-3.854Zm28.178-.093c-.244.519-2.231,4.018-11.357,4.018-9.143,0-11.121-3.512-11.357-4.017V27.28l11.135,5.53a.509.509,0,0,0,.444,0l11.135-5.531ZM25,31.8,9.042,23.877l13.669-1.131a2.661,2.661,0,0,0,2.3,1.041c1.4,0,2.5-.761,2.5-1.731s-1.1-1.732-2.5-1.732a2.373,2.373,0,0,0-2.455,1.433L7.311,23.018l-1.937-.962L25,12.309l19.626,9.747Zm-1.491-9.747c0-.338.655-.732,1.5-.732s1.5.394,1.5.732c0,.3-.583.731-1.5.731S23.509,22.354,23.509,22.056Z"/></svg>