<svg width="96" height="96" xmlns="http://www.w3.org/2000/svg" xmlns:xlink="http://www.w3.org/1999/xlink" xml:space="preserve" overflow="hidden"><defs><clipPath id="clip0"><rect x="601" y="91" width="96" height="96"/></clipPath></defs><g clip-path="url(#clip0)" transform="translate(-601 -91)"><path d="M679.516 133.583 681.652 134.237C679.526 119.821 668.214 108.496 653.8 106.353L654.491 108.496C667.251 110.816 677.227 120.818 679.516 133.583Z"/><path d="M616.36 134.146 618.5 133.5C620.82 120.77 630.788 110.81 643.52 108.5L644.175 106.361C629.807 108.508 618.523 119.781 616.36 134.146Z"/><path d="M643.386 169.481C630.747 167.13 620.861 157.24 618.516 144.6L616.365 143.9C618.536 158.2 629.747 169.431 644.044 171.627Z"/><path d="M681.654 143.746 679.513 144.437C677.216 157.197 667.238 167.19 654.481 169.505L653.79 171.648C668.214 169.508 679.534 158.173 681.654 143.746Z"/><path d="M676.8 135.888 661.666 130.964 666.503 121.584 657.072 126.39 652.2 111.182 650.2 104.982 649 101.082 647.7 105.082 645.8 111.282 641.016 126.416 631.6 121.584 636.42 131.013 621.3 135.789 615 137.689 611 138.989 615 140.289 621.1 142.289 636.348 147.089 631.5 156.494 640.886 151.547 645.7 166.8 647.6 173 648.9 177 650.2 173 652.2 166.8 657.1 151.5 666.5 156.4 661.672 147.049 676.7 142.19 682.9 140.19 686.9 138.89 683 137.79ZM676.086 140.288 660.745 145.242 658.735 141.349C658.534 142.228 658.214 143.075 657.784 143.868L661.829 151.7 654.106 147.673C653.367 148.116 652.573 148.462 651.745 148.7L655.3 150.554 650.3 166.183 648.918 170.466 647.61 166.195 642.685 150.6 646.279 148.706C645.452 148.47 644.658 148.129 643.919 147.689L636.189 151.763 640.24 143.9C639.808 143.112 639.486 142.27 639.281 141.395L637.281 145.28 621.724 140.39 617.53 139.015 621.9 137.7 637.341 132.823 639.308 136.67C639.523 135.805 639.852 134.972 640.289 134.195L636.201 126.195 644.217 130.308C645.011 129.877 645.86 129.557 646.74 129.355L642.82 127.342 647.714 111.868 648.984 107.72 650.3 111.792 655.266 127.31 651.255 129.354C652.138 129.555 652.989 129.877 653.785 130.309L661.885 126.184 657.738 134.227C658.171 135.007 658.498 135.841 658.709 136.708L660.742 132.765 676.217 137.8 680.1 138.992Z"/><path d="M649 132.088C645.134 132.088 642 135.222 642 139.088 642 142.954 645.134 146.088 649 146.088 652.866 146.088 656 142.954 656 139.088 655.995 135.224 652.864 132.093 649 132.088ZM649 144.088C646.239 144.088 644 141.849 644 139.088 644 136.327 646.239 134.088 649 134.088 651.761 134.088 654 136.327 654 139.088 653.998 141.849 651.761 144.087 649 144.091Z"/></g></svg>