<svg xmlns="http://www.w3.org/2000/svg" viewBox="0 0 50 50"><path d="M24.976,4.5c-7.444,0-13.5,5.8-13.5,12.923a12.642,12.642,0,0,0,5.271,10.243,10.01,10.01,0,0,1,1.228,4.142c0,2.229,1.126,4.479,3.642,4.479h8.577a2.553,2.553,0,0,1-.865,1.3l-8.1-.005A1.427,1.427,0,0,0,19.8,39V41.92a3.345,3.345,0,0,0,1,2.209A5.664,5.664,0,0,0,24.95,45.5a5.663,5.663,0,0,0,4.158-1.371,3.349,3.349,0,0,0,1-2.206v-.617a1.427,1.427,0,0,0-1.429-1.421h-7.45a.425.425,0,0,1-.429-.421V39a.425.425,0,0,1,.429-.421l8.192.005a.531.531,0,0,0,.143-.02c.949-.284,1.523-1.622,1.777-2.582a.479.479,0,0,0,.037-.142,4.852,4.852,0,0,0,.111-.609l.059-.611a29.138,29.138,0,0,1,1.9-7.136,12.653,12.653,0,0,0,5.03-10.059C38.476,10.3,32.42,4.5,24.976,4.5ZM21.225,40.885h7.45a.425.425,0,0,1,.429.421v.615c0,.105-.079,2.579-4.154,2.579S20.8,42.026,20.8,41.923v-1.1A1.41,1.41,0,0,0,21.225,40.885Zm11.5-14.114a.508.508,0,0,0-.166.22,29.96,29.96,0,0,0-2.016,7.576l-.057.561c-.006.052-.012.1-.021.159H21.617c-2.568,0-2.642-3.123-2.642-3.479a11.126,11.126,0,0,0-1.386-4.7.5.5,0,0,0-.155-.182,11.662,11.662,0,0,1-4.958-9.507c0-6.574,5.607-11.923,12.5-11.923s12.5,5.349,12.5,11.923A11.67,11.67,0,0,1,32.729,26.771Z"/><path d="M30.193,16.249H27.335L28.36,9.495a.5.5,0,0,0-.893-.377L19.408,19.787a.5.5,0,0,0,.4.8h2.858L21.64,27.345a.5.5,0,0,0,.3.536.51.51,0,0,0,.2.039.5.5,0,0,0,.4-.2l8.059-10.671a.5.5,0,0,0-.4-.8Zm-7.269,9.3.816-5.38a.5.5,0,0,0-.494-.575H20.811L27.076,11.3l-.816,5.378a.5.5,0,0,0,.494.575h2.435Z"/></svg>